<svg width="32" height="32" viewBox="0 0 32 32" fill="none" xmlns="http://www.w3.org/2000/svg">
<path d="M24.0933 11.3468L12.68 5.64018C5.01332 1.80018 1.86665 4.94685 5.70665 12.6135L6.86665 14.9335C7.19999 15.6135 7.19999 16.4002 6.86665 17.0802L5.70665 19.3868C1.86665 27.0535 4.99999 30.2002 12.68 26.3602L24.0933 20.6535C29.2133 18.0935 29.2133 13.9068 24.0933 11.3468ZM19.7867 17.0002H12.5867C12.04 17.0002 11.5867 16.5468 11.5867 16.0002C11.5867 15.4535 12.04 15.0002 12.5867 15.0002H19.7867C20.3333 15.0002 20.7867 15.4535 20.7867 16.0002C20.7867 16.5468 20.3333 17.0002 19.7867 17.0002Z" fill="#2F73BA"/>
</svg>
